# xmcd
#
# Track frame offsets:
#	150
#	20002
#	39300
#	59200
#	72977
#	88692
#	105042
#	117380
#	130717
#	148182
#	169890
#	180900
#	196210
#	210362
#	225995
#	237592
#
# Disc length: 3304 seconds
#
# Revision: 1
# Processed by: cddbd v1.5.1PL2 Copyright (c) Steve Scherf et al.
# Submitted via: audiograbber 1.83.01
#
DISCID=d90ce610
DTITLE=Elba Ramalho - Grandes Sucessos
DYEAR=1900
DGENRE=Mpb
TTITLE0=Ave De Prata
TTITLE1=Caldeirão Dos Mitos
TTITLE2=Capim Do Vale
TTITLE3=Cajuina
TTITLE4=Nó Cego
TTITLE5=Canta Coração
TTITLE6=Banquete Dos Signos
TTITLE7=Aquarela Nordestina
TTITLE8=Baile De Máscaras
TTITLE9=O Violeiro
TTITLE10=Cartão Postal
TTITLE11=O Dia Do Criador
TTITLE12=Lua Viva
TTITLE13=Espiral Do Tempo
TTITLE14=Embalança
TTITLE15=Amanhã Eu Vou
EXTD=
EXTT0=
EXTT1=
EXTT2=
EXTT3=
EXTT4=
EXTT5=
EXTT6=
EXTT7=
EXTT8=
EXTT9=
EXTT10=
EXTT11=
EXTT12=
EXTT13=
EXTT14=
EXTT15=
PLAYORDER=
